<svg width="338" height="150" viewBox="0 0 338 150" fill="none" xmlns="http://www.w3.org/2000/svg">
<rect width="338" height="150" rx="6" fill="#FFFEFE"/>
<path d="M4 118.566C13.6933 124.504 27.5296 130.03 32.1082 130.835C41.0932 132.414 48.4637 126.823 52.4209 124.198C55.7715 121.975 63.2322 113.35 70.2905 105.286C73.9872 101.062 76.8918 97.0289 79.2344 92.7834C81.5021 88.6736 81.9852 84.4025 82.0857 83.0229C82.126 82.4707 85.8113 89.6113 91.4896 98.8902C95.244 105.025 100.031 107.777 106.91 109.494C116.073 111.781 126.01 111.685 133.215 111.572C138.864 111.483 145.299 107.818 152.02 100.263C160.728 90.4721 164.028 80.501 164.738 78.7842C165.336 77.3375 168.47 84.5401 173.542 97.2628C176.102 103.686 179.649 105.94 184.405 108C187.079 109.159 190.567 109.607 196.651 109.39C202.734 109.174 211.38 108.038 221.362 105.523C231.345 103.008 242.403 99.1482 251.719 94.5483C261.034 89.9485 268.272 84.7259 272.705 81.6948C282.135 75.2461 288.098 68.5833 291.458 65.136C293.987 62.5413 299.856 59.1841 303.746 56.7585C306.361 55.1284 313.857 55.262 318.874 56.5177C322.423 57.5533 326.493 58.2414 328.516 58.5854C329.734 58.7024 331.343 58.7024 333 58.7024" stroke="#E7E7E7" stroke-width="5" stroke-linecap="round"/>
<path d="M14.2017 71.1111L12.2131 63.8384H13.108L14.6278 69.7617H14.6989L16.2472 63.8384H17.2415L18.7898 69.7617H18.8608L20.3807 63.8384H21.2756L19.2869 71.1111H18.3778L16.7727 65.3156H16.7159L15.1108 71.1111H14.2017ZM22.3729 71.1111V63.8384H26.7621V64.6196H23.2536V67.077H26.5348V67.8582H23.2536V70.3298H26.8189V71.1111H22.3729ZM30.7642 64.6196V63.8384H36.2188V64.6196H33.9318V71.1111H33.0511V64.6196H30.7642ZM42.3507 63.8384H43.2314V68.6537C43.2314 69.1509 43.1142 69.5947 42.8798 69.9854C42.6478 70.3736 42.3199 70.6802 41.8961 70.9051C41.4724 71.1277 40.9752 71.2389 40.4047 71.2389C39.8341 71.2389 39.3369 71.1277 38.9132 70.9051C38.4894 70.6802 38.1603 70.3736 37.926 69.9854C37.694 69.5947 37.5779 69.1509 37.5779 68.6537V63.8384H38.4586V68.5827C38.4586 68.9378 38.5368 69.2538 38.693 69.5308C38.8493 69.8054 39.0718 70.0221 39.3606 70.1807C39.6518 70.3369 39.9998 70.4151 40.4047 70.4151C40.8095 70.4151 41.1575 70.3369 41.4487 70.1807C41.7399 70.0221 41.9624 69.8054 42.1163 69.5308C42.2725 69.2538 42.3507 68.9378 42.3507 68.5827V63.8384ZM44.9901 71.1111V63.8384H47.4474C48.0156 63.8384 48.482 63.9354 48.8466 64.1295C49.2112 64.3213 49.4811 64.5853 49.6562 64.9215C49.8314 65.2576 49.919 65.64 49.919 66.0685C49.919 66.497 49.8314 66.8769 49.6562 67.2084C49.4811 67.5398 49.2124 67.8002 48.8501 67.9896C48.4879 68.1767 48.0251 68.2702 47.4616 68.2702H45.473V67.4747H47.4332C47.8215 67.4747 48.134 67.4179 48.3707 67.3043C48.6098 67.1906 48.7827 67.0296 48.8892 66.8213C48.9981 66.6106 49.0526 66.3597 49.0526 66.0685C49.0526 65.7773 48.9981 65.5228 48.8892 65.305C48.7803 65.0872 48.6063 64.9191 48.3672 64.8007C48.1281 64.68 47.812 64.6196 47.419 64.6196H45.8707V71.1111H44.9901ZM48.4134 67.844L50.2031 71.1111H49.1804L47.419 67.844H48.4134ZM57.1536 63.8384V71.1111H56.3013L52.3382 65.4009H52.2672V71.1111H51.3865V63.8384H52.2388L56.2161 69.5628H56.2871V63.8384H57.1536ZM61.1033 63.8384H62.1119L64.1289 67.2332H64.2141L66.2312 63.8384H67.2397L64.6119 68.1139V71.1111H63.7312V68.1139L61.1033 63.8384ZM74.1733 67.4747C74.1733 68.2418 74.0348 68.9046 73.7578 69.4634C73.4808 70.0221 73.1009 70.4529 72.6179 70.756C72.1349 71.059 71.5833 71.2105 70.9631 71.2105C70.3428 71.2105 69.7912 71.059 69.3082 70.756C68.8253 70.4529 68.4453 70.0221 68.1683 69.4634C67.8913 68.9046 67.7528 68.2418 67.7528 67.4747C67.7528 66.7077 67.8913 66.0448 68.1683 65.4861C68.4453 64.9274 68.8253 64.4965 69.3082 64.1935C69.7912 63.8904 70.3428 63.7389 70.9631 63.7389C71.5833 63.7389 72.1349 63.8904 72.6179 64.1935C73.1009 64.4965 73.4808 64.9274 73.7578 65.4861C74.0348 66.0448 74.1733 66.7077 74.1733 67.4747ZM73.321 67.4747C73.321 66.845 73.2157 66.3135 73.005 65.8803C72.7966 65.447 72.5137 65.1191 72.1562 64.8966C71.8011 64.6741 71.4034 64.5628 70.9631 64.5628C70.5227 64.5628 70.1238 64.6741 69.7663 64.8966C69.4112 65.1191 69.1283 65.447 68.9176 65.8803C68.7093 66.3135 68.6051 66.845 68.6051 67.4747C68.6051 68.1045 68.7093 68.6359 68.9176 69.0692C69.1283 69.5024 69.4112 69.8303 69.7663 70.0528C70.1238 70.2754 70.5227 70.3867 70.9631 70.3867C71.4034 70.3867 71.8011 70.2754 72.1562 70.0528C72.5137 69.8303 72.7966 69.5024 73.005 69.0692C73.2157 68.6359 73.321 68.1045 73.321 67.4747ZM80.4268 63.8384H81.3075V68.6537C81.3075 69.1509 81.1903 69.5947 80.956 69.9854C80.724 70.3736 80.3961 70.6802 79.9723 70.9051C79.5485 71.1277 79.0514 71.2389 78.4808 71.2389C77.9103 71.2389 77.4131 71.1277 76.9893 70.9051C76.5656 70.6802 76.2365 70.3736 76.0021 69.9854C75.7701 69.5947 75.6541 69.1509 75.6541 68.6537V63.8384H76.5348V68.5827C76.5348 68.9378 76.6129 69.2538 76.7692 69.5308C76.9254 69.8054 77.148 70.0221 77.4368 70.1807C77.728 70.3369 78.076 70.4151 78.4808 70.4151C78.8857 70.4151 79.2337 70.3369 79.5249 70.1807C79.8161 70.0221 80.0386 69.8054 80.1925 69.5308C80.3487 69.2538 80.4268 68.9378 80.4268 68.5827V63.8384ZM83.0662 71.1111V63.8384H85.5236C86.0918 63.8384 86.5582 63.9354 86.9228 64.1295C87.2873 64.3213 87.5572 64.5853 87.7324 64.9215C87.9076 65.2576 87.9952 65.64 87.9952 66.0685C87.9952 66.497 87.9076 66.8769 87.7324 67.2084C87.5572 67.5398 87.2885 67.8002 86.9263 67.9896C86.5641 68.1767 86.1013 68.2702 85.5378 68.2702H83.5492V67.4747H85.5094C85.8977 67.4747 86.2102 67.4179 86.4469 67.3043C86.686 67.1906 86.8588 67.0296 86.9654 66.8213C87.0743 66.6106 87.1287 66.3597 87.1287 66.0685C87.1287 65.7773 87.0743 65.5228 86.9654 65.305C86.8565 65.0872 86.6825 64.9191 86.4434 64.8007C86.2042 64.68 85.8882 64.6196 85.4952 64.6196H83.9469V71.1111H83.0662ZM86.4895 67.844L88.2793 71.1111H87.2566L85.4952 67.844H86.4895ZM94.5195 71.1111H92.2752V63.8384H94.619C95.3245 63.8384 95.9281 63.984 96.43 64.2751C96.9319 64.564 97.3166 64.9795 97.5842 65.5216C97.8517 66.0614 97.9854 66.7077 97.9854 67.4605C97.9854 68.2181 97.8505 68.8703 97.5806 69.4172C97.3107 69.9617 96.9177 70.3807 96.4016 70.6743C95.8855 70.9655 95.2582 71.1111 94.5195 71.1111ZM93.1559 70.3298H94.4627C95.064 70.3298 95.5624 70.2138 95.9577 69.9818C96.3531 69.7498 96.6478 69.4196 96.842 68.9911C97.0361 68.5626 97.1332 68.0524 97.1332 67.4605C97.1332 66.8734 97.0373 66.3679 96.8455 65.9442C96.6538 65.518 96.3673 65.1913 95.9862 64.9641C95.605 64.7344 95.1303 64.6196 94.5621 64.6196H93.1559V70.3298ZM99.4627 71.1111V63.8384H101.92C102.488 63.8384 102.955 63.9354 103.319 64.1295C103.684 64.3213 103.954 64.5853 104.129 64.9215C104.304 65.2576 104.392 65.64 104.392 66.0685C104.392 66.497 104.304 66.8769 104.129 67.2084C103.954 67.5398 103.685 67.8002 103.323 67.9896C102.961 68.1767 102.498 68.2702 101.934 68.2702H99.9457V67.4747H101.906C102.294 67.4747 102.607 67.4179 102.843 67.3043C103.083 67.1906 103.255 67.0296 103.362 66.8213C103.471 66.6106 103.525 66.3597 103.525 66.0685C103.525 65.7773 103.471 65.5228 103.362 65.305C103.253 65.0872 103.079 64.9191 102.84 64.8007C102.601 64.68 102.285 64.6196 101.892 64.6196H100.343V71.1111H99.4627ZM102.886 67.844L104.676 71.1111H103.653L101.892 67.844H102.886ZM105.859 71.1111V63.8384H110.248V64.6196H106.74V67.077H110.021V67.8582H106.74V70.3298H110.305V71.1111H105.859ZM112.134 71.1111H111.211L113.881 63.8384H114.79L117.461 71.1111H116.537L114.364 64.9889H114.307L112.134 71.1111ZM112.475 68.2702H116.197V69.0514H112.475V68.2702ZM118.594 63.8384H119.645L122.116 69.8753H122.202L124.673 63.8384H125.724V71.1111H124.9V65.5855H124.829L122.557 71.1111H121.761L119.488 65.5855H119.417V71.1111H118.594V63.8384ZM131.467 65.6565C131.425 65.2967 131.252 65.0173 130.949 64.8185C130.646 64.6196 130.274 64.5202 129.834 64.5202C129.512 64.5202 129.23 64.5723 128.989 64.6764C128.75 64.7806 128.563 64.9238 128.428 65.1061C128.295 65.2884 128.229 65.4956 128.229 65.7276C128.229 65.9217 128.275 66.0886 128.367 66.2283C128.462 66.3656 128.583 66.4804 128.729 66.5727C128.876 66.6627 129.03 66.7373 129.191 66.7965C129.352 66.8533 129.5 66.8994 129.635 66.9349L130.374 67.1338C130.563 67.1835 130.774 67.2522 131.006 67.3398C131.24 67.4274 131.464 67.5469 131.677 67.6984C131.892 67.8476 132.07 68.0394 132.21 68.2737C132.349 68.5081 132.419 68.7957 132.419 69.1367C132.419 69.5296 132.316 69.8848 132.11 70.202C131.906 70.5192 131.608 70.7714 131.215 70.9584C130.825 71.1454 130.35 71.2389 129.791 71.2389C129.27 71.2389 128.819 71.1549 128.438 70.9868C128.059 70.8187 127.761 70.5843 127.543 70.2837C127.328 69.983 127.206 69.6338 127.178 69.2361H128.087C128.11 69.5107 128.203 69.738 128.364 69.9179C128.527 70.0955 128.733 70.228 128.982 70.3156C129.232 70.4009 129.502 70.4435 129.791 70.4435C130.127 70.4435 130.429 70.389 130.697 70.2801C130.964 70.1688 131.176 70.015 131.332 69.8185C131.489 69.6196 131.567 69.3876 131.567 69.1224C131.567 68.881 131.499 68.6845 131.364 68.533C131.229 68.3814 131.052 68.2583 130.832 68.1636C130.612 68.0689 130.374 67.9861 130.118 67.9151L129.223 67.6594C128.655 67.496 128.205 67.2628 127.874 66.9598C127.542 66.6568 127.376 66.2602 127.376 65.7702C127.376 65.363 127.487 65.0079 127.707 64.7048C127.929 64.3994 128.228 64.1627 128.602 63.9946C128.978 63.8242 129.398 63.7389 129.862 63.7389C130.331 63.7389 130.748 63.823 131.112 63.9911C131.477 64.1568 131.766 64.384 131.979 64.6729C132.194 64.9617 132.308 65.2896 132.32 65.6565H131.467ZM13.7614 75.8384V83.1111H12.8807V75.8384H13.7614ZM21.2942 75.8384V83.1111H20.4419L16.4789 77.4009H16.4078V83.1111H15.5272V75.8384H16.3794L20.3567 81.5628H20.4277V75.8384H21.2942ZM22.6587 76.6196V75.8384H28.1133V76.6196H25.8263V83.1111H24.9457V76.6196H22.6587ZM35.3061 79.4747C35.3061 80.2418 35.1676 80.9046 34.8906 81.4634C34.6136 82.0221 34.2337 82.4529 33.7507 82.756C33.2678 83.059 32.7161 83.2105 32.0959 83.2105C31.4756 83.2105 30.924 83.059 30.4411 82.756C29.9581 82.4529 29.5781 82.0221 29.3011 81.4634C29.0241 80.9046 28.8857 80.2418 28.8857 79.4747C28.8857 78.7077 29.0241 78.0448 29.3011 77.4861C29.5781 76.9274 29.9581 76.4965 30.4411 76.1935C30.924 75.8904 31.4756 75.7389 32.0959 75.7389C32.7161 75.7389 33.2678 75.8904 33.7507 76.1935C34.2337 76.4965 34.6136 76.9274 34.8906 77.4861C35.1676 78.0448 35.3061 78.7077 35.3061 79.4747ZM34.4538 79.4747C34.4538 78.845 34.3485 78.3135 34.1378 77.8803C33.9295 77.447 33.6465 77.1191 33.2891 76.8966C32.9339 76.6741 32.5362 76.5628 32.0959 76.5628C31.6555 76.5628 31.2566 76.6741 30.8991 76.8966C30.544 77.1191 30.2611 77.447 30.0504 77.8803C29.8421 78.3135 29.7379 78.845 29.7379 79.4747C29.7379 80.1045 29.8421 80.6359 30.0504 81.0692C30.2611 81.5024 30.544 81.8303 30.8991 82.0528C31.2566 82.2754 31.6555 82.3867 32.0959 82.3867C32.5362 82.3867 32.9339 82.2754 33.2891 82.0528C33.6465 81.8303 33.9295 81.5024 34.1378 81.0692C34.3485 80.6359 34.4538 80.1045 34.4538 79.4747ZM44.3722 75.8384H45.2528V80.6537C45.2528 81.1509 45.1357 81.5947 44.9013 81.9854C44.6693 82.3736 44.3414 82.6802 43.9176 82.9051C43.4938 83.1277 42.9967 83.2389 42.4261 83.2389C41.8556 83.2389 41.3584 83.1277 40.9347 82.9051C40.5109 82.6802 40.1818 82.3736 39.9474 81.9854C39.7154 81.5947 39.5994 81.1509 39.5994 80.6537V75.8384H40.4801V80.5827C40.4801 80.9378 40.5582 81.2538 40.7145 81.5308C40.8707 81.8054 41.0933 82.0221 41.3821 82.1807C41.6733 82.3369 42.0213 82.4151 42.4261 82.4151C42.831 82.4151 43.179 82.3369 43.4702 82.1807C43.7614 82.0221 43.9839 81.8054 44.1378 81.5308C44.294 81.2538 44.3722 80.9378 44.3722 80.5827V75.8384ZM52.7786 75.8384V83.1111H51.9263L47.9632 77.4009H47.8922V83.1111H47.0115V75.8384H47.8638L51.8411 81.5628H51.9121V75.8384H52.7786ZM54.5408 83.1111V75.8384H58.9016V76.6196H55.4215V79.077H58.5749V79.8582H55.4215V83.1111H54.5408ZM66.5463 79.4747C66.5463 80.2418 66.4078 80.9046 66.1309 81.4634C65.8539 82.0221 65.4739 82.4529 64.9909 82.756C64.508 83.059 63.9564 83.2105 63.3361 83.2105C62.7159 83.2105 62.1642 83.059 61.6813 82.756C61.1983 82.4529 60.8184 82.0221 60.5414 81.4634C60.2644 80.9046 60.1259 80.2418 60.1259 79.4747C60.1259 78.7077 60.2644 78.0448 60.5414 77.4861C60.8184 76.9274 61.1983 76.4965 61.6813 76.1935C62.1642 75.8904 62.7159 75.7389 63.3361 75.7389C63.9564 75.7389 64.508 75.8904 64.9909 76.1935C65.4739 76.4965 65.8539 76.9274 66.1309 77.4861C66.4078 78.0448 66.5463 78.7077 66.5463 79.4747ZM65.6941 79.4747C65.6941 78.845 65.5887 78.3135 65.378 77.8803C65.1697 77.447 64.8868 77.1191 64.5293 76.8966C64.1742 76.6741 63.7765 76.5628 63.3361 76.5628C62.8958 76.5628 62.4969 76.6741 62.1394 76.8966C61.7843 77.1191 61.5014 77.447 61.2907 77.8803C61.0823 78.3135 60.9782 78.845 60.9782 79.4747C60.9782 80.1045 61.0823 80.6359 61.2907 81.0692C61.5014 81.5024 61.7843 81.8303 62.1394 82.0528C62.4969 82.2754 62.8958 82.3867 63.3361 82.3867C63.7765 82.3867 64.1742 82.2754 64.5293 82.0528C64.8868 81.8303 65.1697 81.5024 65.378 81.0692C65.5887 80.6359 65.6941 80.1045 65.6941 79.4747ZM68.0272 83.1111V75.8384H70.4846C71.0527 75.8384 71.5191 75.9354 71.8837 76.1295C72.2483 76.3213 72.5182 76.5853 72.6934 76.9215C72.8685 77.2576 72.9561 77.64 72.9561 78.0685C72.9561 78.497 72.8685 78.8769 72.6934 79.2084C72.5182 79.5398 72.2495 79.8002 71.8873 79.9896C71.525 80.1767 71.0622 80.2702 70.4988 80.2702H68.5101V79.4747H70.4703C70.8586 79.4747 71.1711 79.4179 71.4078 79.3043C71.647 79.1906 71.8198 79.0296 71.9263 78.8213C72.0352 78.6106 72.0897 78.3597 72.0897 78.0685C72.0897 77.7773 72.0352 77.5228 71.9263 77.305C71.8174 77.0872 71.6434 76.9191 71.4043 76.8007C71.1652 76.68 70.8491 76.6196 70.4561 76.6196H68.9078V83.1111H68.0272ZM71.4505 79.844L73.2402 83.1111H72.2175L70.4561 79.844H71.4505ZM79.3952 78.1111C79.3171 77.872 79.2141 77.6577 79.0863 77.4683C78.9608 77.2766 78.8105 77.1132 78.6353 76.9783C78.4625 76.8433 78.266 76.7403 78.0458 76.6693C77.8256 76.5983 77.5842 76.5628 77.3214 76.5628C76.8905 76.5628 76.4987 76.6741 76.146 76.8966C75.7932 77.1191 75.5127 77.447 75.3043 77.8803C75.096 78.3135 74.9918 78.845 74.9918 79.4747C74.9918 80.1045 75.0972 80.6359 75.3079 81.0692C75.5186 81.5024 75.8039 81.8303 76.1637 82.0528C76.5236 82.2754 76.9284 82.3867 77.3782 82.3867C77.7949 82.3867 78.1618 82.2979 78.479 82.1203C78.7987 81.9404 79.0472 81.6871 79.2248 81.3604C79.4047 81.0313 79.4947 80.6442 79.4947 80.1992L79.7646 80.256H77.5771V79.4747H80.3469V80.256C80.3469 80.8549 80.2191 81.3758 79.9634 81.8185C79.7101 82.2612 79.3597 82.6045 78.9123 82.8483C78.4672 83.0898 77.9558 83.2105 77.3782 83.2105C76.7343 83.2105 76.1684 83.059 75.6808 82.756C75.1954 82.4529 74.8166 82.0221 74.5444 81.4634C74.2745 80.9046 74.1396 80.2418 74.1396 79.4747C74.1396 78.8994 74.2165 78.3822 74.3704 77.9229C74.5266 77.4612 74.7468 77.0682 75.0309 76.7439C75.315 76.4196 75.6512 76.171 76.0394 75.9982C76.4277 75.8253 76.855 75.7389 77.3214 75.7389C77.7049 75.7389 78.0624 75.7969 78.3938 75.9129C78.7276 76.0266 79.0247 76.1887 79.2852 76.3994C79.5479 76.6078 79.7669 76.8575 79.9421 77.1487C80.1173 77.4376 80.238 77.7583 80.3043 78.1111H79.3952ZM81.8553 83.1111V75.8384H86.2445V76.6196H82.736V79.077H86.0172V79.8582H82.736V82.3298H86.3013V83.1111H81.8553ZM87.4341 76.6196V75.8384H92.8887V76.6196H90.6017V83.1111H89.7211V76.6196H87.4341ZM93.8501 76.6196V75.8384H99.3047V76.6196H97.0178V83.1111H96.1371V76.6196H93.8501ZM100.113 83.1111H99.1893L101.86 75.8384H102.769L105.439 83.1111H104.516L102.343 76.9889H102.286L100.113 83.1111ZM100.453 80.2702H104.175V81.0514H100.453V80.2702ZM106.572 83.1111V75.8384H109.115C109.621 75.8384 110.039 75.926 110.368 76.1011C110.697 76.274 110.942 76.5072 111.103 76.8007C111.264 77.0919 111.345 77.4151 111.345 77.7702C111.345 78.0827 111.289 78.3407 111.178 78.5443C111.069 78.7479 110.925 78.9089 110.745 79.0273C110.567 79.1456 110.374 79.2332 110.166 79.2901V79.3611C110.388 79.3753 110.612 79.4534 110.837 79.5955C111.062 79.7375 111.25 79.9411 111.402 80.2063C111.553 80.4714 111.629 80.7957 111.629 81.1793C111.629 81.5438 111.546 81.8717 111.38 82.1629C111.215 82.4541 110.953 82.6849 110.596 82.8554C110.238 83.0259 109.773 83.1111 109.2 83.1111H106.572ZM107.453 82.3298H109.2C109.775 82.3298 110.184 82.2186 110.425 81.996C110.669 81.7711 110.791 81.4989 110.791 81.1793C110.791 80.9331 110.728 80.7058 110.603 80.4974C110.477 80.2867 110.298 80.1187 110.066 79.9932C109.834 79.8653 109.56 79.8014 109.243 79.8014H107.453V82.3298ZM107.453 79.0344H109.086C109.351 79.0344 109.591 78.9823 109.804 78.8781C110.019 78.774 110.19 78.6272 110.315 78.4378C110.443 78.2484 110.507 78.0259 110.507 77.7702C110.507 77.4506 110.395 77.1795 110.173 76.957C109.95 76.7321 109.598 76.6196 109.115 76.6196H107.453V79.0344ZM113.076 83.1111V75.8384H113.957V82.3298H117.337V83.1111H113.076ZM118.701 83.1111V75.8384H123.09V76.6196H119.582V79.077H122.863V79.8582H119.582V82.3298H123.147V83.1111H118.701ZM127.092 76.6196V75.8384H132.547V76.6196H130.26V83.1111H129.379V76.6196H127.092ZM133.906 83.1111V75.8384H136.363C136.932 75.8384 137.398 75.9354 137.763 76.1295C138.127 76.3213 138.397 76.5853 138.572 76.9215C138.747 77.2576 138.835 77.64 138.835 78.0685C138.835 78.497 138.747 78.8769 138.572 79.2084C138.397 79.5398 138.128 79.8002 137.766 79.9896C137.404 80.1767 136.941 80.2702 136.378 80.2702H134.389V79.4747H136.349C136.738 79.4747 137.05 79.4179 137.287 79.3043C137.526 79.1906 137.699 79.0296 137.805 78.8213C137.914 78.6106 137.969 78.3597 137.969 78.0685C137.969 77.7773 137.914 77.5228 137.805 77.305C137.696 77.0872 137.522 76.9191 137.283 76.8007C137.044 76.68 136.728 76.6196 136.335 76.6196H134.787V83.1111H133.906ZM137.329 79.844L139.119 83.1111H138.096L136.335 79.844H137.329ZM140.601 83.1111H139.678L142.348 75.8384H143.257L145.928 83.1111H145.004L142.831 76.9889H142.774L140.601 83.1111ZM140.942 80.2702H144.663V81.0514H140.942V80.2702ZM146.675 75.8384L148.834 81.9605H148.919L151.078 75.8384H152.002L149.331 83.1111H148.422L145.752 75.8384H146.675ZM153.135 83.1111V75.8384H157.524V76.6196H154.015V79.077H157.297V79.8582H154.015V82.3298H157.581V83.1111H153.135ZM159.111 83.1111V75.8384H159.992V82.3298H163.373V83.1111H159.111Z" fill="black"/>
<path d="M15.0376 12.8182V23H12.8849V12.8182H15.0376ZM16.8088 12.8182H19.4636L22.2676 19.6591H22.3869L25.1909 12.8182H27.8457V23H25.7576V16.3729H25.6731L23.0382 22.9503H21.6163L18.9814 16.348H18.8968V23H16.8088V12.8182ZM29.6193 12.8182H32.2741L35.0781 19.6591H35.1974L38.0014 12.8182H40.6562V23H38.5682V16.3729H38.4837L35.8487 22.9503H34.4268L31.7919 16.348H31.7074V23H29.6193V12.8182ZM42.4299 23V12.8182H49.2907V14.593H44.5826V17.0192H48.9377V18.794H44.5826V21.2251H49.3105V23H42.4299ZM59.5185 12.8182V23H57.6591L53.2294 16.5916H53.1548V23H51.0021V12.8182H52.8913L57.2862 19.2216H57.3757V12.8182H59.5185ZM66.8205 15.7464C66.7807 15.3454 66.61 15.0339 66.3084 14.8118C66.0068 14.5897 65.5975 14.4787 65.0804 14.4787C64.7291 14.4787 64.4325 14.5284 64.1905 14.6278C63.9486 14.724 63.763 14.8582 63.6337 15.0305C63.5078 15.2029 63.4448 15.3984 63.4448 15.6172C63.4382 15.7995 63.4763 15.9586 63.5591 16.0945C63.6453 16.2304 63.763 16.348 63.9121 16.4474C64.0613 16.5436 64.2336 16.6281 64.4292 16.701C64.6247 16.7706 64.8335 16.8303 65.0556 16.88L65.9703 17.0987C66.4145 17.1982 66.8221 17.3307 67.1934 17.4964C67.5646 17.6622 67.8861 17.866 68.1578 18.108C68.4296 18.3499 68.6401 18.6349 68.7892 18.9631C68.9417 19.2912 69.0196 19.6674 69.0229 20.0916C69.0196 20.7147 68.8605 21.255 68.5456 21.7124C68.2341 22.1664 67.7833 22.5194 67.1934 22.7713C66.6067 23.0199 65.8991 23.1442 65.0705 23.1442C64.2485 23.1442 63.5326 23.0182 62.9228 22.7663C62.3162 22.5144 61.8423 22.1416 61.5009 21.6477C61.1628 21.1506 60.9855 20.5357 60.9689 19.8033H63.052C63.0752 20.1446 63.173 20.4297 63.3453 20.6584C63.521 20.8838 63.7547 21.0545 64.0463 21.1705C64.3413 21.2831 64.6744 21.3395 65.0456 21.3395C65.4102 21.3395 65.7267 21.2865 65.9952 21.1804C66.267 21.0743 66.4775 20.9268 66.6266 20.7379C66.7757 20.549 66.8503 20.3319 66.8503 20.0866C66.8503 19.858 66.7824 19.6657 66.6465 19.5099C66.5139 19.3542 66.3184 19.2216 66.0598 19.1122C65.8046 19.0028 65.4914 18.9034 65.1202 18.8139L64.0115 18.5355C63.1531 18.3267 62.4753 18.0002 61.9782 17.5561C61.481 17.112 61.2341 16.5137 61.2374 15.7614C61.2341 15.1449 61.3981 14.6063 61.7296 14.1456C62.0643 13.6849 62.5234 13.3253 63.1067 13.0668C63.69 12.8082 64.3529 12.679 65.0953 12.679C65.851 12.679 66.5106 12.8082 67.074 13.0668C67.6408 13.3253 68.0816 13.6849 68.3965 14.1456C68.7114 14.6063 68.8738 15.1399 68.8837 15.7464H66.8205ZM70.4709 23V12.8182H77.3317V14.593H72.6236V17.0192H76.9787V18.794H72.6236V21.2251H77.3516V23H70.4709ZM81.8956 14.593V12.8182H90.2578V14.593H87.1406V23H85.0128V14.593H81.8956ZM100.527 17.9091C100.527 19.0194 100.316 19.964 99.8952 20.7429C99.4776 21.5218 98.9076 22.1167 98.185 22.5277C97.4658 22.9354 96.6571 23.1392 95.7589 23.1392C94.854 23.1392 94.042 22.9337 93.3228 22.5227C92.6036 22.1117 92.0352 21.5168 91.6175 20.7379C91.1999 19.959 90.9911 19.0161 90.9911 17.9091C90.9911 16.7988 91.1999 15.8542 91.6175 15.0753C92.0352 14.2964 92.6036 13.7031 93.3228 13.2955C94.042 12.8845 94.854 12.679 95.7589 12.679C96.6571 12.679 97.4658 12.8845 98.185 13.2955C98.9076 13.7031 99.4776 14.2964 99.8952 15.0753C100.316 15.8542 100.527 16.7988 100.527 17.9091ZM98.3441 17.9091C98.3441 17.1899 98.2364 16.5833 98.021 16.0895C97.8088 15.5956 97.5089 15.2211 97.1211 14.9659C96.7333 14.7107 96.2792 14.5831 95.7589 14.5831C95.2385 14.5831 94.7844 14.7107 94.3967 14.9659C94.0089 15.2211 93.7073 15.5956 93.4918 16.0895C93.2797 16.5833 93.1737 17.1899 93.1737 17.9091C93.1737 18.6283 93.2797 19.2348 93.4918 19.7287C93.7073 20.2225 94.0089 20.5971 94.3967 20.8523C94.7844 21.1075 95.2385 21.2351 95.7589 21.2351C96.2792 21.2351 96.7333 21.1075 97.1211 20.8523C97.5089 20.5971 97.8088 20.2225 98.021 19.7287C98.2364 19.2348 98.3441 18.6283 98.3441 17.9091ZM108.41 12.8182H110.563V19.4304C110.563 20.1728 110.386 20.8224 110.031 21.3793C109.68 21.9361 109.188 22.3703 108.555 22.6818C107.921 22.9901 107.184 23.1442 106.342 23.1442C105.497 23.1442 104.758 22.9901 104.125 22.6818C103.492 22.3703 103 21.9361 102.648 21.3793C102.297 20.8224 102.121 20.1728 102.121 19.4304V12.8182H104.274V19.2464C104.274 19.6342 104.358 19.9789 104.528 20.2805C104.7 20.5821 104.942 20.8191 105.253 20.9915C105.565 21.1638 105.928 21.25 106.342 21.25C106.76 21.25 107.123 21.1638 107.431 20.9915C107.742 20.8191 107.983 20.5821 108.152 20.2805C108.324 19.9789 108.41 19.6342 108.41 19.2464V12.8182ZM112.334 23V12.8182H116.351C117.12 12.8182 117.776 12.9557 118.32 13.2308C118.867 13.5026 119.283 13.8887 119.568 14.3892C119.856 14.8864 120 15.4714 120 16.1442C120 16.8203 119.855 17.402 119.563 17.8892C119.271 18.3731 118.849 18.7443 118.295 19.0028C117.745 19.2614 117.079 19.3906 116.297 19.3906H113.607V17.6605H115.949C116.359 17.6605 116.701 17.6042 116.973 17.4915C117.244 17.3788 117.447 17.2098 117.579 16.9844C117.715 16.759 117.783 16.4789 117.783 16.1442C117.783 15.8061 117.715 15.5211 117.579 15.2891C117.447 15.0571 117.243 14.8814 116.968 14.7621C116.696 14.6394 116.353 14.5781 115.939 14.5781H114.487V23H112.334ZM117.833 18.3665L120.363 23H117.987L115.511 18.3665H117.833ZM127.045 15.7464C127.005 15.3454 126.835 15.0339 126.533 14.8118C126.231 14.5897 125.822 14.4787 125.305 14.4787C124.954 14.4787 124.657 14.5284 124.415 14.6278C124.173 14.724 123.988 14.8582 123.858 15.0305C123.732 15.2029 123.669 15.3984 123.669 15.6172C123.663 15.7995 123.701 15.9586 123.784 16.0945C123.87 16.2304 123.988 16.348 124.137 16.4474C124.286 16.5436 124.458 16.6281 124.654 16.701C124.849 16.7706 125.058 16.8303 125.28 16.88L126.195 17.0987C126.639 17.1982 127.047 17.3307 127.418 17.4964C127.789 17.6622 128.111 17.866 128.382 18.108C128.654 18.3499 128.865 18.6349 129.014 18.9631C129.166 19.2912 129.244 19.6674 129.248 20.0916C129.244 20.7147 129.085 21.255 128.77 21.7124C128.459 22.1664 128.008 22.5194 127.418 22.7713C126.831 23.0199 126.124 23.1442 125.295 23.1442C124.473 23.1442 123.757 23.0182 123.147 22.7663C122.541 22.5144 122.067 22.1416 121.725 21.6477C121.387 21.1506 121.21 20.5357 121.194 19.8033H123.277C123.3 20.1446 123.398 20.4297 123.57 20.6584C123.746 20.8838 123.979 21.0545 124.271 21.1705C124.566 21.2831 124.899 21.3395 125.27 21.3395C125.635 21.3395 125.951 21.2865 126.22 21.1804C126.492 21.0743 126.702 20.9268 126.851 20.7379C127 20.549 127.075 20.3319 127.075 20.0866C127.075 19.858 127.007 19.6657 126.871 19.5099C126.739 19.3542 126.543 19.2216 126.284 19.1122C126.029 19.0028 125.716 18.9034 125.345 18.8139L124.236 18.5355C123.378 18.3267 122.7 18.0002 122.203 17.5561C121.706 17.112 121.459 16.5137 121.462 15.7614C121.459 15.1449 121.623 14.6063 121.954 14.1456C122.289 13.6849 122.748 13.3253 123.331 13.0668C123.915 12.8082 124.578 12.679 125.32 12.679C126.076 12.679 126.735 12.8082 127.299 13.0668C127.865 13.3253 128.306 13.6849 128.621 14.1456C128.936 14.6063 129.098 15.1399 129.108 15.7464H127.045ZM18.4084 32.7464C18.3686 32.3454 18.1979 32.0339 17.8963 31.8118C17.5947 31.5897 17.1854 31.4787 16.6683 31.4787C16.317 31.4787 16.0204 31.5284 15.7784 31.6278C15.5365 31.724 15.3509 31.8582 15.2216 32.0305C15.0956 32.2029 15.0327 32.3984 15.0327 32.6172C15.026 32.7995 15.0642 32.9586 15.147 33.0945C15.2332 33.2304 15.3509 33.348 15.5 33.4474C15.6491 33.5436 15.8215 33.6281 16.017 33.701C16.2126 33.7706 16.4214 33.8303 16.6435 33.88L17.5582 34.0987C18.0024 34.1982 18.41 34.3307 18.7812 34.4964C19.1525 34.6622 19.474 34.866 19.7457 35.108C20.0175 35.3499 20.228 35.6349 20.3771 35.9631C20.5296 36.2912 20.6075 36.6674 20.6108 37.0916C20.6075 37.7147 20.4484 38.255 20.1335 38.7124C19.822 39.1664 19.3712 39.5194 18.7812 39.7713C18.1946 40.0199 17.487 40.1442 16.6584 40.1442C15.8364 40.1442 15.1205 40.0182 14.5107 39.7663C13.9041 39.5144 13.4302 39.1416 13.0888 38.6477C12.7507 38.1506 12.5734 37.5357 12.5568 36.8033H14.6399C14.6631 37.1446 14.7609 37.4297 14.9332 37.6584C15.1089 37.8838 15.3426 38.0545 15.6342 38.1705C15.9292 38.2831 16.2623 38.3395 16.6335 38.3395C16.9981 38.3395 17.3146 38.2865 17.5831 38.1804C17.8549 38.0743 18.0653 37.9268 18.2145 37.7379C18.3636 37.549 18.4382 37.3319 18.4382 37.0866C18.4382 36.858 18.3703 36.6657 18.2344 36.5099C18.1018 36.3542 17.9063 36.2216 17.6477 36.1122C17.3925 36.0028 17.0793 35.9034 16.7081 35.8139L15.5994 35.5355C14.741 35.3267 14.0632 35.0002 13.5661 34.5561C13.0689 34.112 12.822 33.5137 12.8253 32.7614C12.822 32.1449 12.986 31.6063 13.3175 31.1456C13.6522 30.6849 14.1113 30.3253 14.6946 30.0668C15.2779 29.8082 15.9408 29.679 16.6832 29.679C17.4389 29.679 18.0985 29.8082 18.6619 30.0668C19.2287 30.3253 19.6695 30.6849 19.9844 31.1456C20.2992 31.6063 20.4616 32.1399 20.4716 32.7464H18.4084ZM22.0588 40V29.8182H28.9196V31.593H24.2115V34.0192H28.5666V35.794H24.2115V38.2251H28.9395V40H22.0588ZM30.631 40V29.8182H32.7837V38.2251H37.1488V40H30.631ZM38.5744 40V29.8182H45.4352V31.593H40.7271V34.0192H45.0822V35.794H40.7271V38.2251H45.4551V40H38.5744ZM56.1303 33.3828H53.9528C53.913 33.1011 53.8318 32.8509 53.7092 32.6321C53.5865 32.41 53.4291 32.2211 53.2369 32.0653C53.0446 31.9096 52.8226 31.7902 52.5707 31.7074C52.3221 31.6245 52.052 31.5831 51.7603 31.5831C51.2333 31.5831 50.7743 31.714 50.3832 31.9759C49.9921 32.2344 49.6888 32.6122 49.4734 33.1094C49.2579 33.6032 49.1502 34.2031 49.1502 34.9091C49.1502 35.6349 49.2579 36.2448 49.4734 36.7386C49.6921 37.2325 49.997 37.6054 50.3881 37.8572C50.7792 38.1091 51.2317 38.2351 51.7454 38.2351C52.0337 38.2351 52.3005 38.197 52.5458 38.1207C52.7944 38.0445 53.0148 37.9335 53.207 37.7876C53.3993 37.6385 53.5584 37.4579 53.6843 37.2457C53.8136 37.0336 53.9031 36.7917 53.9528 36.5199L56.1303 36.5298C56.074 36.9972 55.9331 37.4479 55.7077 37.8821C55.4857 38.313 55.1857 38.6991 54.8079 39.0405C54.4334 39.3786 53.9859 39.647 53.4656 39.8459C52.9485 40.0414 52.3635 40.1392 51.7106 40.1392C50.8024 40.1392 49.9904 39.9337 49.2745 39.5227C48.5619 39.1117 47.9985 38.5168 47.5842 37.7379C47.1732 36.959 46.9677 36.0161 46.9677 34.9091C46.9677 33.7988 47.1765 32.8542 47.5941 32.0753C48.0117 31.2964 48.5785 30.7031 49.2944 30.2955C50.0103 29.8845 50.8157 29.679 51.7106 29.679C52.3005 29.679 52.8474 29.7618 53.3512 29.9276C53.8583 30.0933 54.3074 30.3352 54.6985 30.6534C55.0896 30.9683 55.4078 31.3544 55.6531 31.8118C55.9016 32.2692 56.0607 32.7929 56.1303 33.3828ZM57.2862 31.593V29.8182H65.6484V31.593H62.5312V40H60.4034V31.593H57.2862ZM69.1783 29.8182V40H67.0256V29.8182H69.1783ZM80.3059 34.9091C80.3059 36.0194 80.0955 36.964 79.6745 37.7429C79.2569 38.5218 78.6868 39.1167 77.9643 39.5277C77.2451 39.9354 76.4364 40.1392 75.5382 40.1392C74.6333 40.1392 73.8213 39.9337 73.1021 39.5227C72.3829 39.1117 71.8145 38.5168 71.3968 37.7379C70.9792 36.959 70.7704 36.0161 70.7704 34.9091C70.7704 33.7988 70.9792 32.8542 71.3968 32.0753C71.8145 31.2964 72.3829 30.7031 73.1021 30.2955C73.8213 29.8845 74.6333 29.679 75.5382 29.679C76.4364 29.679 77.2451 29.8845 77.9643 30.2955C78.6868 30.7031 79.2569 31.2964 79.6745 32.0753C80.0955 32.8542 80.3059 33.7988 80.3059 34.9091ZM78.1234 34.9091C78.1234 34.1899 78.0157 33.5833 77.8002 33.0895C77.5881 32.5956 77.2882 32.2211 76.9004 31.9659C76.5126 31.7107 76.0585 31.5831 75.5382 31.5831C75.0178 31.5831 74.5637 31.7107 74.176 31.9659C73.7882 32.2211 73.4866 32.5956 73.2711 33.0895C73.059 33.5833 72.9529 34.1899 72.9529 34.9091C72.9529 35.6283 73.059 36.2348 73.2711 36.7287C73.4866 37.2225 73.7882 37.5971 74.176 37.8523C74.5637 38.1075 75.0178 38.2351 75.5382 38.2351C76.0585 38.2351 76.5126 38.1075 76.9004 37.8523C77.2882 37.5971 77.5881 37.2225 77.8002 36.7287C78.0157 36.2348 78.1234 35.6283 78.1234 34.9091ZM90.4169 29.8182V40H88.5575L84.1278 33.5916H84.0533V40H81.9006V29.8182H83.7898L88.1847 36.2216H88.2741V29.8182H90.4169Z" fill="black"/>
<rect x="12.5" y="101.5" width="71" height="23" rx="11.5" fill="#FFFAFA" stroke="black"/>
<path d="M23.8253 110.909L25.3366 115.195H25.3963L26.9077 110.909H27.554L25.6847 116H25.0483L23.179 110.909H23.8253ZM28.3469 116V110.909H31.4194V111.456H28.9634V113.176H31.2603V113.723H28.9634V115.453H31.4592V116H28.3469ZM33.147 110.909V116H32.5305V110.909H33.147ZM35.3078 116L33.9157 110.909H34.5422L35.6061 115.055H35.6558L36.7396 110.909H37.4356L38.5194 115.055H38.5692L39.6331 110.909H40.2595L38.8675 116H38.2311L37.1075 111.943H37.0677L35.9442 116H35.3078ZM42.9964 116V110.909H44.7165C45.1143 110.909 45.4407 110.977 45.6959 111.113C45.9511 111.247 46.1401 111.432 46.2627 111.667C46.3853 111.903 46.4466 112.17 46.4466 112.47C46.4466 112.77 46.3853 113.036 46.2627 113.268C46.1401 113.5 45.952 113.682 45.6984 113.815C45.4449 113.946 45.1209 114.011 44.7265 114.011H43.3344V113.455H44.7066C44.9784 113.455 45.1971 113.415 45.3628 113.335C45.5302 113.256 45.6512 113.143 45.7258 112.997C45.802 112.85 45.8401 112.674 45.8401 112.47C45.8401 112.266 45.802 112.088 45.7258 111.936C45.6495 111.783 45.5277 111.666 45.3604 111.583C45.193 111.498 44.9717 111.456 44.6966 111.456H43.6128V116H42.9964ZM45.3927 113.713L46.6455 116H45.9296L44.6966 113.713H45.3927ZM47.4739 116V110.909H50.5463V111.456H48.0904V113.176H50.3873V113.723H48.0904V115.453H50.5861V116H47.4739ZM51.8663 110.909L53.3777 115.195H53.4373L54.9487 110.909H55.595L53.7257 116H53.0893L51.22 110.909H51.8663ZM57.0044 110.909V116H56.388V110.909H57.0044ZM58.2405 116V110.909H61.3129V111.456H58.857V113.176H61.1539V113.723H58.857V115.453H61.3527V116H58.2405ZM63.3488 116L61.9568 110.909H62.5832L63.6471 115.055H63.6968L64.7806 110.909H65.4767L66.5605 115.055H66.6102L67.6741 110.909H68.3005L66.9085 116H66.2721L65.1485 111.943H65.1088L63.9852 116H63.3488ZM71.8527 112.182C71.8229 111.93 71.7019 111.734 71.4898 111.595C71.2777 111.456 71.0175 111.386 70.7093 111.386C70.4839 111.386 70.2867 111.423 70.1176 111.496C69.9503 111.569 69.8193 111.669 69.7249 111.797C69.6321 111.924 69.5857 112.069 69.5857 112.232C69.5857 112.367 69.618 112.484 69.6826 112.582C69.7489 112.678 69.8334 112.759 69.9362 112.823C70.0389 112.886 70.1466 112.938 70.2593 112.98C70.372 113.02 70.4756 113.052 70.57 113.077L71.0871 113.216C71.2197 113.251 71.3672 113.299 71.5296 113.36C71.6936 113.421 71.8502 113.505 71.9994 113.611C72.1502 113.716 72.2745 113.85 72.3722 114.014C72.47 114.178 72.5189 114.379 72.5189 114.618C72.5189 114.893 72.4468 115.142 72.3026 115.364C72.1601 115.586 71.9513 115.762 71.6762 115.893C71.4028 116.024 71.0705 116.089 70.6794 116.089C70.3148 116.089 69.9991 116.031 69.7323 115.913C69.4672 115.795 69.2584 115.631 69.1059 115.421C68.9551 115.21 68.8698 114.966 68.8499 114.688H69.4862C69.5028 114.88 69.5674 115.039 69.6801 115.165C69.7945 115.289 69.9387 115.382 70.1127 115.443C70.2883 115.503 70.4772 115.533 70.6794 115.533C70.9147 115.533 71.126 115.495 71.3133 115.418C71.5006 115.34 71.6489 115.233 71.7583 115.095C71.8676 114.956 71.9223 114.794 71.9223 114.608C71.9223 114.439 71.8751 114.301 71.7806 114.195C71.6862 114.089 71.5619 114.003 71.4078 113.937C71.2536 113.871 71.0871 113.812 70.9081 113.763L70.2817 113.584C69.884 113.469 69.5691 113.306 69.3371 113.094C69.1051 112.882 68.9891 112.604 68.9891 112.261C68.9891 111.976 69.0661 111.728 69.2203 111.516C69.376 111.302 69.5848 111.136 69.8467 111.018C70.1102 110.899 70.4043 110.839 70.7291 110.839C71.0573 110.839 71.3489 110.898 71.6041 111.016C71.8593 111.132 72.0615 111.291 72.2107 111.493C72.3615 111.695 72.441 111.925 72.4493 112.182H71.8527Z" fill="black"/>
</svg>
